<svg width="64" height="64" viewBox="0 0 64 64" fill="none" xmlns="http://www.w3.org/2000/svg">
<path d="M61.11 37.5C61.11 32.64 57.93 28.48 53.45 26.8C52.37 15.7 43.19 7 32.06 7C20.93 7 11.74 15.7 10.66 26.8C6.18 28.48 3 32.64 3 37.5C3 43.84 8.41 49 15.06 49C15.89 49 16.56 48.33 16.56 47.5V27.5C16.56 26.67 15.89 26 15.06 26C14.64 26 14.22 26.02 13.8 26.06C15.18 16.98 22.83 10 32.06 10C41.29 10 48.93 16.98 50.32 26.06C49.9 26.02 49.48 26 49.06 26C48.23 26 47.56 26.67 47.56 27.5V47.5C47.56 48.33 48.23 49 49.06 49C50.41 49 51.71 48.78 52.93 48.38C52 51.06 49.45 53 46.46 53H37.4C36.97 51.56 35.64 50.5 34.06 50.5C32.13 50.5 30.56 52.07 30.56 54C30.56 55.93 32.13 57.5 34.06 57.5C35.25 57.5 36.29 56.9 36.92 56H46.46C51.71 56 56 51.87 56.28 46.69C59.21 44.59 61.11 41.26 61.11 37.5ZM13.56 45.88C9.27 45.21 6 41.71 6 37.5C6 33.29 9.27 29.79 13.56 29.12V45.88ZM50.56 29.12C54.84 29.79 58.12 33.3 58.12 37.5C58.12 41.7 54.85 45.21 50.56 45.88V29.12Z" fill="#00D0D0"/>
</svg>
