<svg width="40" height="60" viewBox="0 0 40 60" fill="none" xmlns="http://www.w3.org/2000/svg">
<g clip-path="url(#clip0)">
<path d="M0.00027581 2.1551L3.5234 58.0898C3.58631 59.1673 4.50484 60 5.6121 60H21.2648V46.9959C21.2648 46.0653 22.0449 45.3061 23.0012 45.3061H27.0906C28.0468 45.3061 28.827 46.0653 28.827 46.9959V60H34.4136C35.5209 60 36.4268 59.1673 36.5023 58.0898L40.0254 2.1551C40.0758 0.991837 39.1195 0 37.9116 0H2.08898C0.881056 0 -0.0752196 0.991837 0.00027581 2.1551ZM18.7483 28.1633H11.1988V20.8163H18.7483V28.1633ZM18.7483 18.3673H11.1988V11.0204H18.7483V18.3673ZM28.8144 28.1633H21.2648V20.8163H28.8144V28.1633ZM28.8144 18.3673H21.2648V11.0204H28.8144V18.3673Z" fill="#45DDDD"/>
</g>
<defs>
<clipPath id="clip0">
<rect width="40" height="60" fill="white"/>
</clipPath>
</defs>
</svg>
