<svg width="64" height="64" viewBox="0 0 64 64" fill="none" xmlns="http://www.w3.org/2000/svg">
<path d="M48.6601 34.07C49.6201 33.76 50.1501 32.73 49.8401 31.77C49.5301 30.81 48.5001 30.28 47.5401 30.59C46.5801 30.9 46.0501 31.93 46.3601 32.89C46.6701 33.85 47.7001 34.38 48.6601 34.07Z" fill="#00D0D0"/>
<path d="M60.34 43.25L58.04 36.11L59.51 35.64C60.01 35.48 60.29 34.94 60.12 34.44L56.63 23.6C56.5 23.2 56.13 22.94 55.72 22.94C55.62 22.94 55.52 22.95 55.43 22.99L53.96 23.46L51.92 17.11C51.58 16.06 50.62 15.4 49.57 15.4C49.32 15.4 49.06 15.44 48.81 15.52L48.43 15.64L49.9 10.25L26.98 4L25.31 10.12L22.65 6.21L3 19.59L8.96 28.35L7.65 28.77C6.35 29.19 5.64 30.58 6.06 31.87L14.48 58.01C14.82 59.06 15.78 59.72 16.83 59.72C17.08 59.72 17.34 59.68 17.59 59.6L58.76 46.35C60.05 45.94 60.76 44.55 60.34 43.25ZM56.64 33.41L48.16 36.14C47.82 36.25 47.48 36.3 47.13 36.3C45.67 36.3 44.38 35.36 43.93 33.97L43.76 33.43C43.48 32.58 43.56 31.66 43.97 30.86C44.38 30.06 45.08 29.47 45.93 29.19L54.41 26.46L56.64 33.41ZM46.23 12.35L45.04 16.74L24.86 23.24L29.1 7.69L46.23 12.35ZM7.17 20.38L21.86 10.38L24.28 13.93L21.45 24.33L11.95 27.39L7.17 20.38ZM17.17 56.59L9.08 31.46L49.23 18.53L51.11 24.37L45 26.35C41.66 27.43 39.82 31.01 40.89 34.36L41.06 34.9C41.93 37.6 44.43 39.31 47.11 39.31C47.76 39.31 48.41 39.21 49.06 39L55.17 37.03L57.31 43.66L17.17 56.59Z" fill="#00D0D0"/>
</svg>
