<svg width="64" height="64" viewBox="0 0 64 64" fill="none" xmlns="http://www.w3.org/2000/svg">
<path d="M32.1699 24C26.6599 24 22.1699 19.51 22.1699 14C22.1699 8.49 26.6599 4 32.1699 4C37.6799 4 42.1699 8.49 42.1699 14C42.1699 19.51 37.6799 24 32.1699 24ZM32.1699 7C28.3099 7 25.1699 10.14 25.1699 14C25.1699 17.86 28.3099 21 32.1699 21C36.0299 21 39.1699 17.86 39.1699 14C39.1699 10.14 36.0299 7 32.1699 7Z" fill="#00D0D0"/>
<path d="M48.1699 24C46.2599 24 44.4099 23.46 42.7999 22.44C42.0999 22 41.8999 21.07 42.3399 20.37C42.7899 19.67 43.7099 19.47 44.4099 19.91C45.5299 20.62 46.8299 21 48.1699 21C52.0299 21 55.1699 17.86 55.1699 14C55.1699 10.14 52.0299 7 48.1699 7C46.8299 7 45.5399 7.38 44.4099 8.09C43.7099 8.54 42.7799 8.33 42.3399 7.63C41.8899 6.93 42.0999 6 42.7999 5.56C44.4099 4.54 46.2599 4 48.1699 4C53.6799 4 58.1699 8.49 58.1699 14C58.1699 19.51 53.6799 24 48.1699 24Z" fill="#00D0D0"/>
<path d="M16.1699 24C10.6599 24 6.16992 19.51 6.16992 14C6.16992 8.49 10.6599 4 16.1699 4C18.0799 4 19.9299 4.54 21.5399 5.56C22.2399 6 22.4399 6.93 21.9999 7.63C21.5499 8.33 20.6299 8.54 19.9299 8.09C18.7999 7.38 17.5099 7 16.1699 7C12.3099 7 9.16992 10.14 9.16992 14C9.16992 17.86 12.3099 21 16.1699 21C17.5099 21 18.7999 20.62 19.9299 19.91C20.6299 19.46 21.5599 19.67 21.9999 20.37C22.4399 21.07 22.2399 22 21.5399 22.44C19.9299 23.46 18.0799 24 16.1699 24Z" fill="#00D0D0"/>
<path d="M40.1699 59.5H24.1699C22.2399 59.5 20.6699 57.93 20.6699 56V38.33C20.6699 32.08 25.7499 27 31.9999 27H32.3299C38.5799 27 43.6599 32.08 43.6599 38.33V56C43.6699 57.93 42.0999 59.5 40.1699 59.5ZM31.9999 30C27.3999 30 23.6699 33.74 23.6699 38.33V56C23.6699 56.28 23.8899 56.5 24.1699 56.5H40.1699C40.4499 56.5 40.6699 56.28 40.6699 56V38.33C40.6699 33.73 36.9299 30 32.3399 30H31.9999Z" fill="#00D0D0"/>
<path d="M55.6202 55H45.9361C45.1323 55 44.4834 54.33 44.4834 53.5C44.4834 52.67 45.1323 52 45.9361 52H55.6202C55.8913 52 56.1044 51.78 56.1044 51.5V37.55C56.1044 33.38 52.8215 30 48.7929 30H46.9626C45.9457 30 44.9676 30.21 44.038 30.63C43.302 30.96 42.4498 30.61 42.1205 29.86C41.8009 29.1 42.1399 28.22 42.8662 27.88C44.1542 27.3 45.5293 27 46.9529 27H48.7832C54.4194 27 59 31.73 59 37.55V51.5C59.0096 53.43 57.4892 55 55.6202 55Z" fill="#00D0D0"/>
<path d="M18.5 55H8.5C6.57 55 5 53.43 5 51.5V37.55C5 31.73 9.73 27 15.55 27H17.44C18.9 27 20.32 27.29 21.66 27.88C22.42 28.21 22.77 29.1 22.43 29.86C22.1 30.62 21.21 30.96 20.45 30.63C19.51 30.21 18.5 30 17.45 30H15.56C11.39 30 8 33.39 8 37.55V51.5C8 51.78 8.22 52 8.5 52H18.5C19.33 52 20 52.67 20 53.5C20 54.33 19.33 55 18.5 55Z" fill="#00D0D0"/>
</svg>
