<svg width="64" height="64" viewBox="0 0 64 64" fill="none" xmlns="http://www.w3.org/2000/svg">
<path d="M38.65 50L6.5 50C5.67 50 5 50.67 5 51.5C5 52.33 5.67 53 6.5 53L38.65 53C39.35 56.42 42.38 59 46 59C49.62 59 52.65 56.42 53.35 53L57 53C57.83 53 58.5 52.33 58.5 51.5C58.5 50.67 57.83 50 57 50L53.35 50C52.65 46.58 49.62 44 46 44C42.38 44 39.35 46.58 38.65 50ZM50.5 51.5C50.5 53.98 48.48 56 46 56C43.52 56 41.5 53.98 41.5 51.5C41.5 49.02 43.52 47 46 47C48.48 47 50.5 49.02 50.5 51.5Z" fill="#00D0D0"/>
<path d="M18 31C14.38 31 11.35 33.58 10.65 37L6.5 37C5.67 37 5 37.67 5 38.5C5 39.33 5.67 40 6.5 40L10.65 40C11.35 43.42 14.38 46 18 46C21.62 46 24.65 43.42 25.35 40L57 40C57.83 40 58.5 39.33 58.5 38.5C58.5 37.67 57.83 37 57 37L25.35 37C24.65 33.58 21.62 31 18 31ZM22.5 38.5C22.5 40.98 20.48 43 18 43C15.52 43 13.5 40.98 13.5 38.5C13.5 36.02 15.52 34 18 34C20.48 34 22.5 36.02 22.5 38.5Z" fill="#00D0D0"/>
<path d="M32 18C28.38 18 25.35 20.58 24.65 24L6.5 24C5.67 24 5 24.67 5 25.5C5 26.33 5.67 27 6.5 27L24.65 27C25.35 30.42 28.38 33 32 33C35.62 33 38.65 30.42 39.35 27L57 27C57.83 27 58.5 26.33 58.5 25.5C58.5 24.67 57.83 24 57 24L39.35 24C38.65 20.58 35.62 18 32 18ZM36.5 25.5C36.5 27.98 34.48 30 32 30C29.52 30 27.5 27.98 27.5 25.5C27.5 23.02 29.52 21 32 21C34.48 21 36.5 23.02 36.5 25.5Z" fill="#00D0D0"/>
<path d="M46 5C42.38 5 39.35 7.58 38.65 11L6.5 11C5.67 11 5 11.67 5 12.5C5 13.33 5.67 14 6.5 14L38.65 14C39.35 17.42 42.38 20 46 20C49.62 20 52.65 17.42 53.35 14L57 14C57.83 14 58.5 13.33 58.5 12.5C58.5 11.67 57.83 11 57 11L53.35 11C52.65 7.58 49.62 5 46 5ZM50.5 12.5C50.5 14.98 48.48 17 46 17C43.52 17 41.5 14.98 41.5 12.5C41.5 10.02 43.52 8 46 8C48.48 8 50.5 10.02 50.5 12.5Z" fill="#00D0D0"/>
</svg>
