<svg width="440" height="296" viewBox="0 0 440 296" fill="none" xmlns="http://www.w3.org/2000/svg">
<g clip-path="url(#clip0)">
<path d="M335.209 291.661C391.686 279.647 464.96 95.4951 431.649 45.6302C393.763 -11.0938 90.9106 -25.1362 20.7002 63.1336C-32.1463 129.571 25.2851 261.892 90.9106 278.277C156.547 294.662 291.239 301.019 335.209 291.661Z" fill="#00D0D0"/>
<path fill-rule="evenodd" clip-rule="evenodd" d="M11.4355 90.4556L203.433 89.3054C203.433 89.3054 209.802 72.2725 204.419 68.4665C199.037 64.6605 188 86.1581 188 86.1581C188 86.1581 173.207 36.4292 151.877 25.9209C127.022 13.6664 94.6451 37.6421 87.8569 50.9631C81.0688 64.2841 98.3486 81.3588 98.3486 81.3588C98.3486 81.3588 80.8275 69.2298 66.0552 67.7137C51.2934 66.1767 47.5794 89.295 47.5794 89.295C47.5794 89.295 23.8787 75.974 11.4355 90.4556Z" fill="#FBF9FB"/>
<path fill-rule="evenodd" clip-rule="evenodd" d="M272.291 104.843H387.175C387.175 104.843 408.735 82.101 408.106 66.5006C407.476 50.9002 371.805 39.7331 357.095 45.8185C342.386 51.904 340.162 97.2413 340.162 97.2413C340.162 97.2413 343.792 61.2935 320.5 61.0425C289.235 60.6975 308.361 103.996 308.361 103.996C308.361 103.996 269.773 87.0049 272.291 104.843Z" fill="#FBF9FB"/>
<path fill-rule="evenodd" clip-rule="evenodd" d="M378.067 236.327C378.067 236.327 349.792 238.701 331.285 238.272C312.778 237.844 287.43 219.159 287.43 219.159C287.43 219.159 300.083 199.92 319.618 198.978C339.154 198.037 378.067 236.327 378.067 236.327Z" fill="#5A5200"/>
<path fill-rule="evenodd" clip-rule="evenodd" d="M320.049 280.682C320.049 280.682 320.898 261.882 323.899 253.559C326.889 245.246 344.421 245.215 344.421 245.215L346.372 244.127C346.372 244.127 351.838 227.46 356.109 221.95L355.489 219.169C355.489 219.169 347.128 241.315 344.757 243.197C342.385 245.089 326.039 246.083 324.99 246.898C323.941 247.703 321.664 251.687 321.664 251.687C321.664 251.687 318.055 251.007 317.678 249.721C317.3 248.435 317.121 228.548 317.121 228.548C317.121 228.548 308.739 224.167 310.354 208.274L306.462 206.496L312.358 228.088C312.358 228.088 315.401 229.029 315.684 230.189C315.967 231.34 314.824 250.746 314.824 250.746C314.824 250.746 319.723 253.893 319.986 258.191C320.248 262.488 315.023 280.671 315.023 280.671H320.049V280.682Z" fill="#702D4D"/>
<path fill-rule="evenodd" clip-rule="evenodd" d="M379.064 236.725C379.064 236.725 358.542 236.014 342.196 233.421L353.181 230.409C353.181 230.409 340.297 213.868 323.384 210.187C306.472 206.507 301.845 213.272 301.845 213.272C301.845 213.272 306.828 212.237 316.25 212.205C316.25 212.205 300.019 213.899 287.45 219.179C287.45 219.179 302.222 169.691 330.571 164.808C358.93 159.925 368.939 206.298 368.939 206.298C368.939 206.298 376.871 206.015 379.294 207.469C381.707 208.901 379.064 236.725 379.064 236.725Z" fill="#8B7900"/>
<path opacity="0.25" fill-rule="evenodd" clip-rule="evenodd" d="M379.285 207.458C379.285 207.458 380.911 215.666 375.35 223.686C369.79 231.706 357.619 232.208 357.619 232.208C357.619 232.208 365.257 230.681 368.447 225.683L362.372 226.917C362.372 226.917 367.513 212.488 368.919 206.287C368.94 206.287 374.899 205.649 379.285 207.458Z" fill="#BAD300"/>
<path fill-rule="evenodd" clip-rule="evenodd" d="M294.722 207.469C294.722 207.469 290.231 206.361 289.686 198.675C289.686 198.665 292.057 205.252 294.722 207.469Z" fill="#6D7500"/>
<path fill-rule="evenodd" clip-rule="evenodd" d="M389.85 221.448C389.85 221.448 387.93 232.657 378.886 229.28C378.886 229.28 383.082 228.182 389.85 221.448Z" fill="#6D7500"/>
<path fill-rule="evenodd" clip-rule="evenodd" d="M348.921 225.683C348.921 225.683 348.124 216.743 338.786 219.19C338.797 219.19 345.291 220.8 348.921 225.683Z" fill="#6D7500"/>
<path fill-rule="evenodd" clip-rule="evenodd" d="M354.388 174.825C354.388 174.825 355.258 156.14 343.298 157.478C343.308 157.489 353.664 171.395 354.388 174.825Z" fill="#8B7900"/>
<path fill-rule="evenodd" clip-rule="evenodd" d="M384.373 221.762C384.373 221.762 383.481 226.311 379.138 226.562C379.138 226.562 382.978 223.801 384.373 221.762Z" fill="#6D7500"/>
<path fill-rule="evenodd" clip-rule="evenodd" d="M356.119 193.019C356.119 193.019 358.469 196.49 355.259 197.661C355.259 197.661 356.423 195.758 356.119 193.019Z" fill="#6D7500"/>
<path fill-rule="evenodd" clip-rule="evenodd" d="M306.23 219.169C306.23 219.169 314.498 216.649 318.495 223.571C318.485 223.581 312.693 219.211 306.23 219.169Z" fill="#6D7500"/>
<path fill-rule="evenodd" clip-rule="evenodd" d="M314.52 174.239C314.52 174.239 314.373 158.953 326.176 156.903L314.52 174.239Z" fill="#8B7900"/>
<path fill-rule="evenodd" clip-rule="evenodd" d="M310.753 171.887C310.753 171.887 308.717 164.369 303.629 166.732L310.753 171.887Z" fill="#8B7900"/>
<path fill-rule="evenodd" clip-rule="evenodd" d="M327.267 227.44L319.713 226.185L234.363 85.562L236.22 82.0278L327.267 227.44Z" fill="#39175A"/>
<path fill-rule="evenodd" clip-rule="evenodd" d="M172.147 283.934L167.143 212.53L234.657 90.4556L308.361 210.669L298.603 283.934H172.147Z" fill="#F83D45"/>
<path fill-rule="evenodd" clip-rule="evenodd" d="M167.143 212.53L75.5508 222.034L84.4372 283.934H172.148L167.143 212.53Z" fill="#B32742"/>
<path fill-rule="evenodd" clip-rule="evenodd" d="M172.147 279.229L84.0908 281.581L84.437 283.934H172.147V279.229Z" fill="#A28BCC"/>
<path opacity="0.5" fill-rule="evenodd" clip-rule="evenodd" d="M172.147 283.934L167.741 221.114L77.1348 233.086L84.437 283.934H172.147Z" fill="#864C90"/>
<path fill-rule="evenodd" clip-rule="evenodd" d="M234.363 73.7466L126.771 98.0778L50.5068 231.716L57.0956 234.874L157.889 230.88L234.363 73.7466Z" fill="url(#paint0_linear)"/>
<path fill-rule="evenodd" clip-rule="evenodd" d="M331.526 225.15L235.8 73.7466H234.363L155.077 228.496L157.889 230.88L236.22 82.0278L327.267 227.44L331.526 225.15Z" fill="url(#paint1_linear)"/>
<path fill-rule="evenodd" clip-rule="evenodd" d="M324.014 225.349L234.363 85.562L159.578 227.66L163.743 228.256L232.831 93.7595L320.825 225.966L324.014 225.349Z" fill="#F1E7ED"/>
<path fill-rule="evenodd" clip-rule="evenodd" d="M320.825 225.965L306.399 225.349L307.805 214.788L230.67 97.9626L232.831 93.7593L320.825 225.965Z" fill="#A28BCC"/>
<path fill-rule="evenodd" clip-rule="evenodd" d="M155.077 199.114L195.879 122.242H199.835L159.001 119.743L155.077 199.114Z" fill="#F83D45"/>
<path fill-rule="evenodd" clip-rule="evenodd" d="M155.078 199.115H89.0744L82.4961 133.681L114.317 82.0278L159.001 119.743L155.078 199.115Z" fill="#B32742"/>
<path fill-rule="evenodd" clip-rule="evenodd" d="M155.077 228.496L50.5068 231.717L57.0956 234.874L157.889 230.88L155.077 228.496Z" fill="#39175A"/>
<path d="M275.753 166.367L195.858 165.854V165.593L275.753 166.105V166.367Z" fill="#B32742"/>
<path d="M268.157 154.865L202.741 152.449L202.752 152.188L268.167 154.603L268.157 154.865Z" fill="#B32742"/>
<path d="M188.829 179.562L188.818 179.301L282.215 175.902L282.226 176.164L188.829 179.562Z" fill="#B32742"/>
<path d="M180.782 195.215V194.953L294.344 194.263V194.525L180.782 195.215Z" fill="#B32742"/>
<path d="M295.986 196.722L178.702 199.014L178.707 199.274L295.991 196.983L295.986 196.722Z" fill="#B32742"/>
<path d="M255.692 135.73H211.197V135.99H255.692V135.73Z" fill="#B32742"/>
<path d="M251.387 129.204L213.95 130.368L213.958 130.629L251.395 129.464L251.387 129.204Z" fill="#B32742"/>
<path d="M242.053 115.059H221.825V115.319H242.053V115.059Z" fill="#B32742"/>
<path d="M176.118 204.038L176.106 204.298L304.449 209.855L304.46 209.594L176.118 204.038Z" fill="#B32742"/>
<path d="M306.315 212.394H171.822V212.655H306.315V212.394Z" fill="#B32742"/>
<path d="M167.962 224.293L167.951 224.032L306.966 220.979V221.24L167.962 224.293Z" fill="#B32742"/>
<path d="M168.292 228.849L168.287 229.109L305.553 231.817L305.558 231.557L168.292 228.849Z" fill="#B32742"/>
<path d="M304.347 240.716L169.419 244.913L169.427 245.173L304.356 240.976L304.347 240.716Z" fill="#B32742"/>
<path d="M169.734 249.69V249.429L303.64 245.958V246.219L169.734 249.69Z" fill="#B32742"/>
<path d="M170.154 255.588L170.144 255.326L302.622 253.57L302.633 253.831L170.154 255.588Z" fill="#B32742"/>
<path d="M170.836 265.302L170.825 265.04L301.814 259.655L301.824 259.917L170.836 265.302Z" fill="#B32742"/>
<path d="M300.435 269.98L170.823 271.479L170.826 271.739L300.438 270.24L300.435 269.98Z" fill="#B32742"/>
<path d="M211.333 194.901H211.071V198.508H211.333V194.901Z" fill="#B32742"/>
<path d="M190.361 271.669L189.05 264.433L189.312 264.392L190.613 271.617L190.361 271.669Z" fill="#B32742"/>
<path d="M282.976 208.761L282.104 212.499L282.359 212.558L283.231 208.82L282.976 208.761Z" fill="#B32742"/>
<path d="M249.642 135.857L248.859 154.024L249.121 154.035L249.904 135.868L249.642 135.857Z" fill="#B32742"/>
<path d="M189.28 134.506L158.123 136.936L158.143 137.195L189.301 134.766L189.28 134.506Z" fill="#B32742"/>
<path d="M182.083 148.11H157.596V148.37H182.083V148.11Z" fill="#B32742"/>
<path d="M173.816 163.668H156.819V163.929H173.816V163.668Z" fill="#B32742"/>
<path d="M164.433 181.317L155.833 183.238L155.89 183.493L164.49 181.573L164.433 181.317Z" fill="#B32742"/>
<path fill-rule="evenodd" clip-rule="evenodd" d="M75.876 138.909L78.1107 137.968L115.419 82.0279L113.667 80.4072L75.876 138.909Z" fill="#39175A"/>
<path fill-rule="evenodd" clip-rule="evenodd" d="M112.25 73.7466L169.692 126.058L198.68 123.277L217.786 90.4553L112.25 73.7466Z" fill="url(#paint2_linear)"/>
<path fill-rule="evenodd" clip-rule="evenodd" d="M169.692 126.058L165.663 128.369L113.666 80.4071L75.8753 138.909L72.2871 137.434L112.25 73.7466L169.692 126.058Z" fill="url(#paint3_linear)"/>
<path fill-rule="evenodd" clip-rule="evenodd" d="M77.9844 137.455L114.38 81.0659L163.743 126.592L161.76 129.53L114.758 85.562L79.8624 138.909L77.9844 137.455Z" fill="#A28BCC"/>
<path fill-rule="evenodd" clip-rule="evenodd" d="M79.8623 138.909L82.9783 138.48L82.8734 137.508L116.258 86.9631L114.758 85.562L79.8623 138.909Z" fill="#7A5AC4"/>
<path fill-rule="evenodd" clip-rule="evenodd" d="M163.744 228.255L158.812 228.987L160.208 226.457L163.744 228.255Z" fill="#7A5AA7"/>
<path fill-rule="evenodd" clip-rule="evenodd" d="M161.761 129.53L197.181 123.831L165.664 128.369L163.744 126.591L161.761 129.53Z" fill="#7A5AA7"/>
<path fill-rule="evenodd" clip-rule="evenodd" d="M165.663 128.369L196.404 125.305L198.68 123.277L169.692 126.058L165.663 128.369Z" fill="#39175A"/>
<path fill-rule="evenodd" clip-rule="evenodd" d="M179.229 260.272L177.215 221.114H201.146L200.664 259.791L179.229 260.272Z" fill="#F1E7ED"/>
<path fill-rule="evenodd" clip-rule="evenodd" d="M177.215 221.114L176.113 222.065L178.495 260.272H179.229L177.215 221.114Z" fill="#7A5AA7"/>
<path fill-rule="evenodd" clip-rule="evenodd" d="M180.898 257.375H198.366V224.188H179.597L180.898 257.375Z" fill="#CABDE2"/>
<path fill-rule="evenodd" clip-rule="evenodd" d="M180.782 225.965L182.167 255.451L196.866 254.981L196.278 225.965H180.782Z" fill="#5A2967"/>
<path fill-rule="evenodd" clip-rule="evenodd" d="M196.278 225.965H195.858L196.278 255.002L196.866 254.981L196.278 225.965Z" fill="#7A5AA7"/>
<path fill-rule="evenodd" clip-rule="evenodd" d="M181.338 233.389H196.425L196.456 234.874H181.453L181.338 233.389Z" fill="#CABDE2"/>
<path fill-rule="evenodd" clip-rule="evenodd" d="M179.597 224.188L179.618 224.554L198.031 224.575L198.104 257.375H198.366V224.188H179.597Z" fill="#7A5AA7"/>
<path fill-rule="evenodd" clip-rule="evenodd" d="M124.011 176.028L123.654 137.068L104.024 138.407L106.396 176.759L124.011 176.028Z" fill="#A28BCC"/>
<path fill-rule="evenodd" clip-rule="evenodd" d="M123.654 137.068L124.62 137.947V175.986L124.011 176.028L123.654 137.068Z" fill="#7A5AA7"/>
<path fill-rule="evenodd" clip-rule="evenodd" d="M122.5 173.246L108.158 174.229L106.458 141.303L121.86 140.257L122.5 173.246Z" fill="#A28BCC"/>
<path fill-rule="evenodd" clip-rule="evenodd" d="M120.979 142.087L121.356 171.417L109.27 171.772L108.263 142.955L120.979 142.087Z" fill="#39175A"/>
<path fill-rule="evenodd" clip-rule="evenodd" d="M108.263 142.955L108.598 142.934L109.753 171.761L109.27 171.772L108.263 142.955Z" fill="#7A5AA7"/>
<path fill-rule="evenodd" clip-rule="evenodd" d="M120.905 149.469L108.515 150.316L108.567 151.79L120.884 150.954L120.905 149.469Z" fill="#A28BCC"/>
<path fill-rule="evenodd" clip-rule="evenodd" d="M121.86 140.257V140.613L106.752 141.669L108.378 174.219L108.158 174.229L106.458 141.303L121.86 140.257Z" fill="#7A5AA7"/>
<path fill-rule="evenodd" clip-rule="evenodd" d="M272.112 259.853L272.07 221.114H295.991L293.578 259.372L272.112 259.853Z" fill="#F1E7ED"/>
<path fill-rule="evenodd" clip-rule="evenodd" d="M272.07 221.114L270.916 222.055L271.378 259.853H272.112L272.07 221.114Z" fill="#7A5AA7"/>
<path fill-rule="evenodd" clip-rule="evenodd" d="M273.927 256.988H291.395L293.064 224.156H274.294L273.927 256.988Z" fill="#CABDE2"/>
<path fill-rule="evenodd" clip-rule="evenodd" d="M275.385 225.913L275.291 255.085L290.011 254.615L290.892 225.913H275.385Z" fill="#5A2967"/>
<path fill-rule="evenodd" clip-rule="evenodd" d="M290.892 225.913H290.472L289.423 254.636L290.01 254.615L290.892 225.913Z" fill="#7A5AA7"/>
<path fill-rule="evenodd" clip-rule="evenodd" d="M275.574 233.253H290.661L290.619 234.717H275.616L275.574 233.253Z" fill="#CABDE2"/>
<path fill-rule="evenodd" clip-rule="evenodd" d="M274.294 224.156V224.512L292.707 224.533L291.133 256.988H291.395L293.064 224.156H274.294Z" fill="#7A5AA7"/>
<path fill-rule="evenodd" clip-rule="evenodd" d="M222.602 148.246L222.035 129.352H242.756L241.906 147.828L222.602 148.246Z" fill="#F1E7ED"/>
<path fill-rule="evenodd" clip-rule="evenodd" d="M222.035 129.352L221.038 130.168L221.961 148.246H222.601L222.035 129.352Z" fill="#7A5AA7"/>
<path fill-rule="evenodd" clip-rule="evenodd" d="M224.164 145.768H240.017L240.216 131.987H223.965L224.164 145.768Z" fill="#CABDE2"/>
<path fill-rule="evenodd" clip-rule="evenodd" d="M224.92 133.514L225.35 144.116L238.821 143.719L238.328 133.514H224.92Z" fill="#5A2967"/>
<path fill-rule="evenodd" clip-rule="evenodd" d="M238.328 133.514H237.972L238.318 143.729L238.821 143.719L238.328 133.514Z" fill="#7A5AA7"/>
<path fill-rule="evenodd" clip-rule="evenodd" d="M223.965 131.987V132.29L239.902 132.321L239.797 145.768H240.017L240.216 131.987H223.965Z" fill="#7A5AA7"/>
<path fill-rule="evenodd" clip-rule="evenodd" d="M298.604 283.934L299.223 279.229H172.147V283.934H298.604Z" fill="#C4D1ED"/>
<path fill-rule="evenodd" clip-rule="evenodd" d="M218.227 283.934L215.824 230.817H257.35L252.891 283.934H218.227Z" fill="#F1E7ED"/>
<path fill-rule="evenodd" clip-rule="evenodd" d="M213.107 231.685L236.588 201.854L262.628 231.988L213.107 231.685Z" fill="#F1E7ED"/>
<path fill-rule="evenodd" clip-rule="evenodd" d="M236.587 201.854L233.513 203.841L210.925 231.988L213.107 231.685L236.587 201.854Z" fill="#7A5AA7"/>
<path fill-rule="evenodd" clip-rule="evenodd" d="M223.462 228.214L236.503 211.379L252.188 228.214H223.462Z" fill="#CABDE2"/>
<path fill-rule="evenodd" clip-rule="evenodd" d="M213.118 232.333L262.555 232.542L262.628 231.988L213.107 231.685L213.118 232.333Z" fill="#7A5AA7"/>
<path fill-rule="evenodd" clip-rule="evenodd" d="M223.462 283.934L221.668 235.648H251.013L249.209 283.934H223.462Z" fill="#CABDE2"/>
<path fill-rule="evenodd" clip-rule="evenodd" d="M218.227 283.934H217.293L214.303 232.009L215.824 232.02L218.227 283.934Z" fill="#7A5AA7"/>
<path fill-rule="evenodd" clip-rule="evenodd" d="M250.111 235.648L248.181 283.934H249.209L251.013 235.648H250.111Z" fill="#7A5AA7"/>
<path fill-rule="evenodd" clip-rule="evenodd" d="M223.819 243.239V237.551H231.048L231.216 243.239H223.819Z" fill="#5A2967"/>
<path fill-rule="evenodd" clip-rule="evenodd" d="M232.045 243.239V237.551H239.274L239.442 243.239H232.045Z" fill="#5A2967"/>
<path fill-rule="evenodd" clip-rule="evenodd" d="M240.112 243.239V237.551H247.341L247.498 243.239H240.112Z" fill="#5A2967"/>
<path fill-rule="evenodd" clip-rule="evenodd" d="M235.832 212.247L236.503 211.379L252.189 228.214H251.013L235.832 212.247Z" fill="#7A5AA7"/>
<path fill-rule="evenodd" clip-rule="evenodd" d="M210.925 231.988L211.533 236.202H213.243L213.107 231.685L210.925 231.988Z" fill="#7A5AA7"/>
<path fill-rule="evenodd" clip-rule="evenodd" d="M262.554 232.543L262.082 236.202H213.243L213.117 232.333L262.554 232.543Z" fill="#F1E7ED"/>
<path opacity="0.5" fill-rule="evenodd" clip-rule="evenodd" d="M256.899 236.202H216.023L216.265 241.493L221.867 240.918L221.92 242.329L249.87 241.671L250.919 239.559L256.637 239.266L256.899 236.202Z" fill="#6D4C90"/>
<path d="M224.585 271.773V271.648L223.693 248.77H247.646L246.712 271.261H246.586L224.585 271.773ZM223.956 249.031L224.837 271.501L246.45 271L247.363 249.031H223.956Z" fill="#7A5AA7"/>
<path d="M245.956 282.616H225.109L224.731 273.373H224.868L246.607 272.986L245.956 282.616ZM225.361 282.355H245.715L246.334 273.248L225.015 273.624L225.361 282.355Z" fill="#7A5AA7"/>
<path d="M132.456 76.827L132.28 77.0215L185.445 124.625L185.62 124.43L132.456 76.827Z" fill="#39175A"/>
<path d="M154.428 80.3248L154.258 80.5239L200.641 119.858L200.811 119.659L154.428 80.3248Z" fill="#39175A"/>
<path d="M190.692 86.0567L190.518 86.252L210.081 103.615L210.256 103.42L190.692 86.0567Z" fill="#39175A"/>
<path d="M157.596 99.3819L157.569 99.6411L179.446 101.856L179.472 101.597L157.596 99.3819Z" fill="#39175A"/>
<path d="M150.111 92.6817L150.099 92.9419L170.092 93.9059L170.105 93.6457L150.111 92.6817Z" fill="#39175A"/>
<path d="M72.4027 230.942L72.1719 230.817L88.9586 199.062L89.1894 199.177L72.4027 230.942Z" fill="#39175A"/>
<path d="M99.2163 199.051L82.373 230.661L82.6047 230.784L99.4479 199.173L99.2163 199.051Z" fill="#39175A"/>
<path d="M84.4576 207.73H64.1143V207.991H84.4576V207.73Z" fill="#39175A"/>
<path d="M117.422 229.667L117.16 229.646L119.909 199.104L120.171 199.125L117.422 229.667Z" fill="#39175A"/>
<path d="M130.831 229.008L130.579 228.966L135.856 199.093L136.119 199.146L130.831 229.008Z" fill="#39175A"/>
<path d="M198.254 125.77L145.681 228.71L145.914 228.829L198.487 125.888L198.254 125.77Z" fill="#39175A"/>
<path d="M182.867 174.112L172.724 175.915L172.77 176.172L182.913 174.369L182.867 174.112Z" fill="#39175A"/>
<path opacity="0.5" fill-rule="evenodd" clip-rule="evenodd" d="M222.602 113.668L305.255 233.985L307.804 214.788L230.67 97.9629L222.602 113.668Z" fill="#864C90"/>
<path opacity="0.5" fill-rule="evenodd" clip-rule="evenodd" d="M190.708 131.987L157.596 140.571L155.078 199.114H89.0746L82.874 137.507L116.259 86.9629L158.141 126.685L161.761 129.529L194.128 125.535L190.708 131.987Z" fill="#864C90"/>
<path opacity="0.2" fill-rule="evenodd" clip-rule="evenodd" d="M159.001 84.3594L194.127 89.2737L210.179 103.515L184.905 106.328L159.001 84.3594Z" fill="#864C90"/>
<path opacity="0.2" fill-rule="evenodd" clip-rule="evenodd" d="M122.501 83.084L140.673 84.3596L177.54 117.369L160.093 117.317L122.501 83.084Z" fill="#864C90"/>
<path opacity="0.2" fill-rule="evenodd" clip-rule="evenodd" d="M188.819 179.426L180.782 195.078L294.344 194.388L282.216 176.027L188.819 179.426Z" fill="#864C90"/>
<path opacity="0.2" fill-rule="evenodd" clip-rule="evenodd" d="M233.451 177.805L232.401 165.979L275.753 166.23L282.216 176.028L233.451 177.805Z" fill="#864C90"/>
<path opacity="0.2" fill-rule="evenodd" clip-rule="evenodd" d="M301.814 259.791L300.44 270.101L256.375 270.623L257.235 261.621L301.814 259.791Z" fill="#864C90"/>
<path opacity="0.2" fill-rule="evenodd" clip-rule="evenodd" d="M220.483 206.089L219.591 212.781L171.822 212.53L176.113 204.175L220.483 206.089Z" fill="#864C90"/>
<path opacity="0.2" fill-rule="evenodd" clip-rule="evenodd" d="M182.073 148.246L173.826 163.805L156.452 163.481L157.596 148.246H182.073Z" fill="#864C90"/>
<path opacity="0.2" fill-rule="evenodd" clip-rule="evenodd" d="M171.811 279.229L170.825 271.638L213.768 271.136L214.303 279.229H171.811Z" fill="#864C90"/>
<path opacity="0.5" fill-rule="evenodd" clip-rule="evenodd" d="M298.604 283.934L170.825 285.366L159.096 282.679H172.053L298.604 283.934Z" fill="#5D2C84"/>
</g>
<defs>
<linearGradient id="paint0_linear" x1="142.434" y1="234.87" x2="142.434" y2="73.7476" gradientUnits="userSpaceOnUse">
<stop stop-color="#52146A"/>
<stop offset="0.9944" stop-color="#511FA4"/>
</linearGradient>
<linearGradient id="paint1_linear" x1="243.304" y1="230.879" x2="243.304" y2="73.7476" gradientUnits="userSpaceOnUse">
<stop offset="0.00558659" stop-color="#8343D6"/>
<stop offset="1" stop-color="#8143E5"/>
</linearGradient>
<linearGradient id="paint2_linear" x1="165.016" y1="126.058" x2="165.016" y2="73.7476" gradientUnits="userSpaceOnUse">
<stop offset="0.00558659" stop-color="#8343D6"/>
<stop offset="1" stop-color="#8143E5"/>
</linearGradient>
<linearGradient id="paint3_linear" x1="120.99" y1="138.907" x2="120.99" y2="73.7476" gradientUnits="userSpaceOnUse">
<stop stop-color="#52146A"/>
<stop offset="0.9944" stop-color="#511FA4"/>
</linearGradient>
<clipPath id="clip0">
<rect width="440" height="296" fill="white"/>
</clipPath>
</defs>
</svg>
