<svg width="186" height="22" viewBox="0 0 186 22" fill="none" xmlns="http://www.w3.org/2000/svg">
<g clip-path="url(#clip0)">
<path d="M45.737 16.9623L44.1821 21.6014H28.2518V0.426758H45.3556L43.8007 5.06583H34.354V8.62339H44.0354L42.4805 13.0917H34.354V16.9623H45.737Z" fill="#00AEAE"/>
<path d="M69.9402 0.426758V21.5729H64.8648L55.2421 10.3026V21.5729H49.1986V0.426758H54.274L63.8967 11.6971V0.426758H69.9402Z" fill="#00AEAE"/>
<path d="M78.9764 5.17967H72.2875V0.426758H91.8263V5.17967H85.1667V21.6014H79.0058V5.17967H78.9764Z" fill="#00AEAE"/>
<path d="M20.5656 14.9416C23.2647 13.6609 24.8196 11.3556 24.8196 8.25341C24.8196 3.41511 21.0937 0.426758 15.1382 0.426758H0L2.40568 5.15121H5.16341V21.6014H11.3243V15.9662H14.6981L18.6587 21.6014H25.2596L20.5656 14.9416ZM14.7568 11.3271H11.3243V5.15121H14.7568C17.3091 5.15121 18.6 6.28963 18.6 8.25341C18.6 10.1887 17.3091 11.3271 14.7568 11.3271Z" fill="#00AEAE"/>
<path d="M92.6775 11.0142C92.6775 4.55369 97.7822 0 104.677 0C108.696 0 111.923 1.42303 114.065 3.98448L110.133 7.4282C108.754 5.83441 107.082 4.95213 104.999 4.95213C101.42 4.95213 98.9264 7.37128 98.9264 10.9858C98.9264 14.6003 101.42 17.0194 104.999 17.0194C107.082 17.0194 108.754 16.1371 110.133 14.5433L114.065 17.9871C111.952 20.5485 108.696 21.9715 104.677 21.9715C97.7822 22 92.6775 17.4463 92.6775 11.0142Z" fill="#555555"/>
<path d="M115.238 11.0142C115.238 4.66753 120.372 0 127.354 0C134.337 0 139.471 4.66753 139.471 11.0142C139.471 17.3609 134.337 22.0285 127.354 22.0285C120.372 22.0285 115.238 17.3609 115.238 11.0142ZM133.251 11.0142C133.251 7.34282 130.669 4.9806 127.354 4.9806C124.039 4.9806 121.457 7.37128 121.457 11.0142C121.457 14.6572 124.039 17.0479 127.354 17.0479C130.669 17.0479 133.251 14.6572 133.251 11.0142Z" fill="#555555"/>
<path d="M186 16.9623L184.445 21.6014H168.486V0.426758H185.59L184.035 5.06583H174.588V8.62339H184.269L182.715 13.0917H174.588V16.9623H186Z" fill="#555555"/>
<path d="M153.054 0.426758H137.564L139.97 5.15121H142.727V21.6014H153.054C160.271 21.6014 165.229 17.5315 165.229 11.0141C165.229 4.49661 160.271 0.426758 153.054 0.426758ZM152.79 16.82H148.888V5.20813H152.79C156.487 5.20813 158.98 7.34267 158.98 11.0141C158.98 14.657 156.516 16.82 152.79 16.82Z" fill="#555555"/>
</g>
<defs>
<clipPath id="clip0">
<rect width="186" height="22" fill="white"/>
</clipPath>
</defs>
</svg>